<svg xmlns="http://www.w3.org/2000/svg" xmlns:xlink="http://www.w3.org/1999/xlink" width="111" height="104" viewBox="0 0 111 104">
  <defs>
    <filter id="Rectangle_1953" x="0" y="0" width="111" height="104" filterUnits="userSpaceOnUse">
      <feOffset dy="3" input="SourceAlpha"/>
      <feGaussianBlur stdDeviation="8" result="blur"/>
      <feFlood flood-opacity="0.051"/>
      <feComposite operator="in" in2="blur"/>
      <feComposite in="SourceGraphic"/>
    </filter>
  </defs>
  <g id="Group_4639" data-name="Group 4639" transform="translate(23.999 21)">
    <g transform="matrix(1, 0, 0, 1, -24, -21)" filter="url(#Rectangle_1953)">
      <rect id="Rectangle_1953-2" data-name="Rectangle 1953" width="63" height="56" rx="10" transform="translate(24 21)" fill="#031d83" opacity="0.1"/>
    </g>
    <g id="shock-breaker" transform="translate(20.736 8.518)">
      <g id="Group_4594" data-name="Group 4594" transform="translate(2.509 30.552)">
        <g id="Group_4593" data-name="Group 4593">
          <path id="Path_2867" data-name="Path 2867" d="M146.566,433.175a1.889,1.889,0,1,0,1.889,1.889A1.891,1.891,0,0,0,146.566,433.175Zm0,2.72a.831.831,0,1,1,.831-.831A.832.832,0,0,1,146.566,435.9Z" transform="translate(-144.677 -433.175)" fill="#031d83"/>
        </g>
      </g>
      <g id="Group_4596" data-name="Group 4596" transform="translate(0)">
        <g id="Group_4595" data-name="Group 4595">
          <path id="Path_2868" data-name="Path 2868" d="M116.271,4.074a2.977,2.977,0,1,0-5.532,0,2.865,2.865,0,0,0-1.566,1.965.529.529,0,1,0,1.034.226,1.8,1.8,0,0,1,1.1-1.284,2.972,2.972,0,0,0,4.4,0,1.784,1.784,0,0,1,1.142,1.668v4.694h-6.68V8.564a.529.529,0,0,0-1.058,0v3.309a.529.529,0,0,0,.529.529h1.327l-.369.167a1.564,1.564,0,0,0,1.021,2.944v.831l-1.021.462a1.564,1.564,0,0,0,1.021,2.943v.831l-1.021.462a1.564,1.564,0,0,0,1.021,2.943v.831l-1.021.462a1.564,1.564,0,0,0,1.021,2.943V29.3a3.67,3.67,0,1,0,3.778,0V26.542l1.021-.462a1.564,1.564,0,0,0-1.021-2.943v-.832l1.021-.462a1.564,1.564,0,0,0-1.021-2.943v-.832l1.021-.462a1.564,1.564,0,0,0-1.021-2.943v-.832l1.021-.462a1.559,1.559,0,0,0,.851-.968h.108a.529.529,0,0,0,.529-.529V6.65A2.841,2.841,0,0,0,116.271,4.074ZM113.5,4.9a1.919,1.919,0,1,1,1.919-1.919A1.921,1.921,0,0,1,113.5,4.9Zm2.612,27.545a2.612,2.612,0,1,1-2.612-2.612A2.615,2.615,0,0,1,116.117,32.441Zm-3.444-3.574V27.772l1.662-.752v1.846a3.644,3.644,0,0,0-1.662,0Zm2.888-4.673a.5.5,0,0,1,.209-.045.51.51,0,0,1,.209.968l-4.531,2.05a.507.507,0,0,1-.417-.923Zm-2.888.145v-.8l1.662-.752v.8Zm2.888-4.382a.5.5,0,0,1,.208-.045.51.51,0,0,1,.209.968l-4.531,2.05a.507.507,0,0,1-.417-.923Zm-2.888.145v-.8l1.662-.752v.8Zm2.888-4.382a.5.5,0,0,1,.209-.045.51.51,0,0,1,.209.968l-4.531,2.05a.507.507,0,0,1-.417-.923Zm-2.888.145v-.8l1.662-.752v.8Zm3.306-3.459-4.531,2.05a.507.507,0,0,1-.417-.923l2.5-1.131h2.457Z" transform="translate(-109.107)" fill="#031d83"/>
        </g>
      </g>
      <g id="Group_4598" data-name="Group 4598" transform="translate(2.809 1.388)">
        <g id="Group_4597" data-name="Group 4597" transform="translate(0)">
          <path id="Path_2869" data-name="Path 2869" d="M150.524,19.679a1.589,1.589,0,1,0,1.589,1.589A1.591,1.591,0,0,0,150.524,19.679Zm0,2.12a.531.531,0,1,1,.531-.531A.532.532,0,0,1,150.524,21.8Z" transform="translate(-148.935 -19.679)" fill="#031d83"/>
        </g>
      </g>
      <g id="Group_4600" data-name="Group 4600" transform="translate(1.582 9.591)">
        <g id="Group_4599" data-name="Group 4599" transform="translate(0)">
          <path id="Path_2870" data-name="Path 2870" d="M132.078,135.988h-.01a.529.529,0,0,0,0,1.058h.01a.529.529,0,1,0,0-1.058Z" transform="translate(-131.539 -135.988)" fill="#031d83"/>
        </g>
      </g>
      <g id="Group_4602" data-name="Group 4602" transform="translate(6.145 9.591)">
        <g id="Group_4601" data-name="Group 4601" transform="translate(0)">
          <path id="Path_2871" data-name="Path 2871" d="M196.776,135.988h-.01a.529.529,0,1,0,0,1.058h.01a.529.529,0,1,0,0-1.058Z" transform="translate(-196.237 -135.988)" fill="#031d83"/>
        </g>
      </g>
      <g id="Group_4604" data-name="Group 4604" transform="translate(14.433 30.552)">
        <g id="Group_4603" data-name="Group 4603" transform="translate(0)">
          <path id="Path_2872" data-name="Path 2872" d="M315.638,433.175a1.889,1.889,0,1,0,1.889,1.889A1.891,1.891,0,0,0,315.638,433.175Zm0,2.72a.831.831,0,1,1,.831-.831A.832.832,0,0,1,315.638,435.9Z" transform="translate(-313.749 -433.175)" fill="#031d83"/>
        </g>
      </g>
      <g id="Group_4606" data-name="Group 4606" transform="translate(11.925)">
        <g id="Group_4605" data-name="Group 4605" transform="translate(0)">
          <path id="Path_2873" data-name="Path 2873" d="M286.447,8.047a.529.529,0,0,0-.529.529v2.769h-6.68V6.65a1.784,1.784,0,0,1,1.142-1.668,2.972,2.972,0,0,0,4.4,0,1.8,1.8,0,0,1,1.1,1.294.529.529,0,0,0,.517.419.536.536,0,0,0,.111-.012.529.529,0,0,0,.407-.627,2.863,2.863,0,0,0-1.569-1.979,2.977,2.977,0,1,0-5.532,0A2.84,2.84,0,0,0,278.18,6.65v5.223a.529.529,0,0,0,.529.529h1.327l-.369.167a1.564,1.564,0,0,0,1.021,2.944v.831l-1.021.462a1.564,1.564,0,0,0,1.021,2.944v.831l-1.021.462a1.564,1.564,0,0,0,1.021,2.944v.831l-1.021.462a1.564,1.564,0,0,0,1.021,2.944V29.3a3.669,3.669,0,0,0,.422,6.51.529.529,0,1,0,.423-.97,2.613,2.613,0,1,1,1.99.04.529.529,0,1,0,.383.986,3.669,3.669,0,0,0,.559-6.566V26.542l1.021-.462a1.564,1.564,0,0,0-1.021-2.944v-.831l1.021-.462a1.564,1.564,0,0,0-1.021-2.944v-.831l1.021-.462a1.564,1.564,0,0,0-1.021-2.944v-.831l1.021-.462a1.562,1.562,0,0,0,.851-.968h.108a.529.529,0,0,0,.529-.529v-3.3A.529.529,0,0,0,286.447,8.047Zm-3.869-6.989a1.919,1.919,0,1,1-1.919,1.919A1.921,1.921,0,0,1,282.578,1.058Zm.831,27.809a3.644,3.644,0,0,0-1.662,0V27.772l1.662-.752Zm1.226-4.673a.5.5,0,0,1,.208-.045.51.51,0,0,1,.209.968l-4.531,2.05a.507.507,0,0,1-.417-.923Zm-2.888.145v-.8l1.662-.752v.8Zm2.888-4.382a.5.5,0,0,1,.208-.045.51.51,0,0,1,.21.968l-4.531,2.05a.507.507,0,0,1-.417-.923Zm-2.888.145v-.8l1.662-.752v.8Zm2.888-4.382a.5.5,0,0,1,.208-.045.51.51,0,0,1,.209.968l-4.531,2.05a.507.507,0,0,1-.417-.923Zm-2.888.145v-.8l1.662-.752v.8Zm3.306-3.459-4.531,2.05a.507.507,0,0,1-.417-.923l2.5-1.131h2.457Z" transform="translate(-278.18)" fill="#031d83"/>
        </g>
      </g>
      <g id="Group_4608" data-name="Group 4608" transform="translate(14.733 1.388)">
        <g id="Group_4607" data-name="Group 4607" transform="translate(0)">
          <path id="Path_2874" data-name="Path 2874" d="M319.595,19.679a1.589,1.589,0,1,0,1.589,1.589A1.591,1.591,0,0,0,319.595,19.679Zm0,2.12a.531.531,0,1,1,.531-.531A.532.532,0,0,1,319.595,21.8Z" transform="translate(-318.006 -19.679)" fill="#031d83"/>
        </g>
      </g>
      <g id="Group_4610" data-name="Group 4610" transform="translate(13.507 9.591)">
        <g id="Group_4609" data-name="Group 4609" transform="translate(0)">
          <path id="Path_2875" data-name="Path 2875" d="M301.15,135.988h-.01a.529.529,0,1,0,0,1.058h.01a.529.529,0,0,0,0-1.058Z" transform="translate(-300.611 -135.988)" fill="#031d83"/>
        </g>
      </g>
      <g id="Group_4612" data-name="Group 4612" transform="translate(18.07 9.591)">
        <g id="Group_4611" data-name="Group 4611" transform="translate(0)">
          <path id="Path_2876" data-name="Path 2876" d="M365.848,135.988h-.011a.529.529,0,0,0,0,1.058h.011a.529.529,0,1,0,0-1.058Z" transform="translate(-365.308 -135.988)" fill="#031d83"/>
        </g>
      </g>
    </g>
  </g>
</svg>
