<svg xmlns="http://www.w3.org/2000/svg" xmlns:xlink="http://www.w3.org/1999/xlink" width="111" height="104" viewBox="0 0 111 104">
  <defs>
    <filter id="Rectangle_1950" x="0" y="0" width="111" height="104" filterUnits="userSpaceOnUse">
      <feOffset dy="3" input="SourceAlpha"/>
      <feGaussianBlur stdDeviation="8" result="blur"/>
      <feFlood flood-opacity="0.051"/>
      <feComposite operator="in" in2="blur"/>
      <feComposite in="SourceGraphic"/>
    </filter>
  </defs>
  <g id="Group_4650" data-name="Group 4650" transform="translate(24.001 21)">
    <g transform="matrix(1, 0, 0, 1, -24, -21)" filter="url(#Rectangle_1950)">
      <rect id="Rectangle_1950-2" data-name="Rectangle 1950" width="63" height="56" rx="10" transform="translate(24 21)" fill="#fff" opacity="0.203"/>
    </g>
    <g id="Outline" transform="translate(11.624 11.788)">
      <path id="Path_2834" data-name="Path 2834" d="M9.564,36.565c.117.176.235.352.364.512a9.137,9.137,0,0,0,1.771,1.77c.168.131.343.25.521.371A9.206,9.206,0,0,0,15.541,40.6c.2.036.4.073.6.1a9.186,9.186,0,0,0,1.252.087,9.055,9.055,0,0,0,1.242-.086c.2-.023.4-.059.617-.1h.018a9.173,9.173,0,0,0,3.3-1.375c.176-.117.352-.235.512-.364a9.117,9.117,0,0,0,1.77-1.773c.131-.169.251-.344.369-.519A9.222,9.222,0,0,0,26.6,33.23c.036-.2.072-.395.094-.587a9.042,9.042,0,0,0,0-2.5c-.024-.2-.059-.4-.1-.623v-.012a9.2,9.2,0,0,0-1.374-3.3c-.117-.176-.238-.352-.364-.512a9.137,9.137,0,0,0-1.77-1.77c-.168-.131-.343-.25-.521-.371a9.206,9.206,0,0,0-3.321-1.377c-.2-.036-.4-.073-.6-.1a9.1,9.1,0,0,0-2.5,0c-.2.023-.4.059-.617.1h-.018a9.173,9.173,0,0,0-3.3,1.375c-.176.117-.352.235-.512.364A9.118,9.118,0,0,0,9.933,25.7c-.131.169-.251.344-.369.519a9.222,9.222,0,0,0-1.379,3.332c-.036.2-.071.395-.094.587a9.042,9.042,0,0,0,0,2.5c.025.2.059.4.1.623v.012a9.2,9.2,0,0,0,1.374,3.3Zm-.045-2.828h2.205l-1.558,1.555A7.98,7.98,0,0,1,9.519,33.737Zm5.525,5.525a8.024,8.024,0,0,1-1.555-.645l1.555-1.56Zm4.694,0V37.057l1.555,1.557a8.02,8.02,0,0,1-1.555.648Zm4.877-3.97-1.558-1.555h2.206a8.005,8.005,0,0,1-.648,1.555Zm.647-6.249H23.057l1.558-1.555A7.98,7.98,0,0,1,25.262,29.042Zm-5.525-5.525a8.024,8.024,0,0,1,1.555.645l-1.555,1.56Zm-4.694,0v2.205l-1.554-1.557A7.964,7.964,0,0,1,15.043,23.517Zm-2.626,1.341c.021-.015.042-.028.062-.043l2.736,2.741a.587.587,0,0,0,1-.414V23.264c.028,0,.052-.009.081-.013a7.93,7.93,0,0,1,1.093-.077c.081,0,.163.006.245.009a8.118,8.118,0,0,1,.861.069l.069.011v3.877a.587.587,0,0,0,1,.414L22.3,24.818c.023.017.046.031.068.048a8.008,8.008,0,0,1,1.552,1.553c.016.02.029.042.044.062l-2.741,2.736a.587.587,0,0,0,.414,1h3.877c0,.028.009.052.013.08a7.866,7.866,0,0,1,0,2.2.555.555,0,0,1-.011.069h-3.88a.587.587,0,0,0-.414,1L23.965,36.3c-.017.022-.031.045-.049.068a8,8,0,0,1-1.553,1.551c-.021.015-.042.028-.059.043l-2.736-2.741a.587.587,0,0,0-1.005.414v3.877c-.028,0-.052.009-.081.013a7.832,7.832,0,0,1-2.2,0,.557.557,0,0,1-.069-.011V35.638a.587.587,0,0,0-1-.414l-2.736,2.741c-.023-.017-.046-.031-.068-.048a8.008,8.008,0,0,1-1.552-1.553c-.016-.02-.029-.042-.044-.059l2.741-2.736a.587.587,0,0,0-.414-1.005H9.265c0-.028-.009-.052-.013-.08a7.866,7.866,0,0,1,0-2.2.555.555,0,0,1,.011-.069h3.88a.587.587,0,0,0,.414-1l-2.738-2.736c.017-.022.031-.045.049-.068a8,8,0,0,1,1.55-1.551Zm-2.251,2.629,1.558,1.555H9.518a8.006,8.006,0,0,1,.648-1.555Z" transform="translate(-4.509 -11.439)" fill="#fff"/>
      <path id="Path_2835" data-name="Path 2835" d="M22.76,38.521A1.76,1.76,0,1,0,21,36.76,1.76,1.76,0,0,0,22.76,38.521Zm0-2.347a.587.587,0,1,1-.587.587A.587.587,0,0,1,22.76,36.174Z" transform="translate(-9.879 -16.81)" fill="#fff"/>
      <path id="Path_2836" data-name="Path 2836" d="M23,32h1.174v1.174H23Z" transform="translate(-10.705 -15.57)" fill="#fff"/>
      <path id="Path_2837" data-name="Path 2837" d="M23,42h1.174v1.174H23Z" transform="translate(-10.705 -19.702)" fill="#fff"/>
      <path id="Path_2838" data-name="Path 2838" d="M28,37h1.174v1.174H28Z" transform="translate(-12.771 -17.636)" fill="#fff"/>
      <path id="Path_2839" data-name="Path 2839" d="M18,37h1.174v1.174H18Z" transform="translate(-8.639 -17.636)" fill="#fff"/>
      <path id="Path_2840" data-name="Path 2840" d="M14.929,36.86c.176,0,.346-.006.512-.015a.524.524,0,0,0,.075.015H24.9V35.687H20.31c.172-.079.34-.165.508-.252.046-.023.093-.045.138-.068.286-.151.564-.315.837-.486.073-.045.144-.093.215-.14q.323-.212.632-.442c.065-.048.13-.094.194-.144.105-.082.207-.166.31-.251v.022H36.053a1.76,1.76,0,0,1-1.76,1.76H28.425V36.86h5.868a2.937,2.937,0,0,0,2.934-2.934V28.058a2.937,2.937,0,0,0-2.934-2.934h-.015a2.9,2.9,0,0,0,.6-1.76V17.5a2.9,2.9,0,0,0-.6-1.76h.015A2.937,2.937,0,0,0,37.227,12.8V6.934A2.937,2.937,0,0,0,34.293,4H17.276a2.937,2.937,0,0,0-2.934,2.934v4.122a12.909,12.909,0,0,0,.587,25.8Zm3.355-25.367c-.225-.059-.451-.117-.68-.168-.168-.036-.339-.063-.51-.092-.225-.038-.45-.073-.678-.1-.176-.02-.352-.034-.528-.048-.124-.009-.245-.027-.369-.033v-.6H36.053v1.174H18.778l-.015,0C18.6,11.575,18.444,11.536,18.284,11.493Zm9.323,10.034c-.029-.151-.065-.3-.1-.45,0-.02-.008-.04-.013-.059h6.211v1.174h-6c-.03-.224-.061-.447-.1-.666Zm-.441-1.684c-.072-.215-.15-.426-.235-.636q-.088-.221-.176-.438c-.015-.032-.026-.066-.041-.1h6.992v1.174Zm-.934,10.342c.029-.053.062-.1.09-.158q.207-.389.388-.795h9.343v1.174H26.107C26.149,30.332,26.192,30.259,26.232,30.185Zm-1.856,2.568c.032-.035.062-.072.094-.107.214-.235.422-.475.62-.726.025-.032.047-.065.072-.1.059-.08.117-.162.18-.244H36.053v1.174Zm11.677-4.694H27.168c.013-.039.025-.079.038-.117q.151-.469.267-.948c.018-.073.032-.148.048-.222.035-.157.072-.312.1-.469h6.671a1.76,1.76,0,0,1,1.76,1.757Zm-8.268-2.934c0-.033,0-.069,0-.1.03-.352.049-.708.049-1.071,0-.2-.016-.391-.025-.587h5.893a1.76,1.76,0,0,1-1.76,1.76ZM33.706,17.5H26.113c-.109-.188-.23-.37-.349-.553-.059-.09-.11-.183-.171-.272-.22-.32-.454-.634-.7-.936h7.057A1.76,1.76,0,0,1,33.706,17.5Zm.587-2.934H23.786c-.159-.15-.327-.285-.492-.426-.111-.1-.218-.2-.331-.286-.251-.2-.511-.386-.775-.566-.067-.046-.13-.1-.2-.143-.185-.121-.38-.228-.571-.34H36.053A1.76,1.76,0,0,1,34.293,14.562ZM17.276,5.174H34.293a1.76,1.76,0,0,1,1.76,1.76H28.434V8.108h7.619V9.281H15.516V8.108H27.251V6.934H15.516A1.76,1.76,0,0,1,17.276,5.174Zm-2.347,7.041q.579,0,1.15.055a11.677,11.677,0,0,1,2.371.487V12.8h.126a11.73,11.73,0,0,1,8.089,11.149,11.129,11.129,0,0,1-.123,1.678q-.074.521-.192,1.026A11.723,11.723,0,0,1,15.48,35.67c-.182.011-.364.016-.551.016a11.736,11.736,0,1,1,0-23.472Z" transform="translate(-2.047 -4)" fill="#fff"/>
      <path id="Path_2841" data-name="Path 2841" d="M43,58h1.174v1.174H43Z" transform="translate(-18.969 -26.313)" fill="#fff"/>
    </g>
  </g>
</svg>
