<svg xmlns="http://www.w3.org/2000/svg" width="39" height="24" viewBox="0 0 39 24">
  <g id="Group_4904" data-name="Group 4904" transform="translate(20831 11870)">
    <path id="FontAwsome_file-alt_" data-name="FontAwsome (file-alt)" d="M4.5,11.625v1.313a.564.564,0,0,0,.563.563h7.875a.564.564,0,0,0,.563-.562V11.625a.564.564,0,0,0-.562-.562H5.063A.564.564,0,0,0,4.5,11.625ZM5.063,15h7.875a.564.564,0,0,1,.563.563v1.313a.564.564,0,0,1-.562.563H5.063a.564.564,0,0,1-.562-.562V15.563A.564.564,0,0,1,5.063,15ZM0,6.183V21.75A2.251,2.251,0,0,0,2.25,24h13.5A2.251,2.251,0,0,0,18,21.75V2.25A2.251,2.251,0,0,0,15.75,0H6.183A2.25,2.25,0,0,0,4.594.661L.661,4.594A2.242,2.242,0,0,0,0,6.183Zm6-3.75V6H2.433L6,2.433ZM2.25,21.75V8.25H7.125A1.122,1.122,0,0,0,8.25,7.125V2.25h7.5v19.5Z" transform="translate(-20831 -11870)" fill="#0911d1"/>
    <path id="FontAwsome_file-alt_2" data-name="FontAwsome (file-alt)" d="M13.5,11.625v1.313a.564.564,0,0,1-.562.563H5.063a.564.564,0,0,1-.562-.562V11.625a.564.564,0,0,1,.563-.562h7.875A.564.564,0,0,1,13.5,11.625ZM12.938,15H5.063a.564.564,0,0,0-.562.563v1.313a.564.564,0,0,0,.563.563h7.875a.564.564,0,0,0,.563-.562V15.563A.564.564,0,0,0,12.938,15ZM18,6.183V21.75A2.251,2.251,0,0,1,15.75,24H2.25A2.251,2.251,0,0,1,0,21.75V2.25A2.251,2.251,0,0,1,2.25,0h9.567a2.25,2.25,0,0,1,1.589.661l3.933,3.933A2.242,2.242,0,0,1,18,6.183Zm-6-3.75V6h3.567L12,2.433ZM15.75,21.75V8.25H10.875A1.122,1.122,0,0,1,9.75,7.125V2.25H2.25v19.5Z" transform="translate(-20810 -11870)" fill="#fe0d26"/>
    <path id="FontAwsome_exchange-alt_" data-name="FontAwsome (exchange-alt)" d="M0,58.143v-.309a.494.494,0,0,1,.52-.464h7.8v-.928a.53.53,0,0,1,.887-.328l1.732,1.547a.43.43,0,0,1,0,.656L9.2,59.864a.53.53,0,0,1-.887-.328v-.928H.52A.494.494,0,0,1,0,58.143Zm10.568,2.94h-7.8v-.928a.53.53,0,0,0-.887-.328L.152,61.374a.43.43,0,0,0,0,.657l1.732,1.547a.53.53,0,0,0,.887-.328v-.928h7.8a.494.494,0,0,0,.52-.464v-.309A.494.494,0,0,0,10.568,61.083Z" transform="translate(-20817 -11909.977)" fill="gray"/>
  </g>
</svg>
