<svg xmlns="http://www.w3.org/2000/svg" width="39" height="39" viewBox="0 0 39 39">
  <defs>
    <style>
      .cls-1 {
        fill: #d9ddec;
      }

      .cls-2 {
        fill: #031d83;
      }
    </style>
  </defs>
  <g id="Group_210" data-name="Group 210" transform="translate(-894 -708)">
    <rect id="Rectangle_662" data-name="Rectangle 662" class="cls-1" width="39" height="39" rx="10" transform="translate(894 708)"/>
    <g id="coupon" transform="translate(902 715)">
      <path id="Path_2882" data-name="Path 2882" class="cls-2" d="M171.034,173.332a2.11,2.11,0,1,0-2.983,0A2.112,2.112,0,0,0,171.034,173.332Zm-1.989-1.989a.7.7,0,1,1,0,.994A.7.7,0,0,1,169.045,171.343Zm0,0" transform="translate(-159.584 -161.774)"/>
      <path id="Path_2883" data-name="Path 2883" class="cls-2" d="M340.733,173.3a2.11,2.11,0,1,0-2.983,0A2.112,2.112,0,0,0,340.733,173.3Zm-1.989-1.989a.7.7,0,1,1,0,.994A.7.7,0,0,1,338.744,171.313Zm0,0" transform="translate(-321.328 -161.744)"/>
      <path id="Path_2884" data-name="Path 2884" class="cls-2" d="M263.052,104.429a.7.7,0,0,0,1.379-.276l-1.989-9.945a.7.7,0,1,0-1.379.276Zm0,0" transform="translate(-248.811 -89.253)"/>
      <path id="Path_2885" data-name="Path 2885" class="cls-2" d="M8.573,23.385a2.109,2.109,0,0,0,2.983,0l.994-.995a.7.7,0,0,0,0-.994.7.7,0,1,1,.994-.995.7.7,0,0,0,.995,0l8.844-8.844a2.112,2.112,0,0,0,0-2.983L15.428.619a2.108,2.108,0,0,0-2.984,0L3.6,9.463a.7.7,0,0,0,0,.995.7.7,0,1,1-.995.994.7.7,0,0,0-.994,0l-.994.994a2.112,2.112,0,0,0,0,2.984ZM1.611,13.441l.583-.582a2.12,2.12,0,0,0,1.818,0l.583.583a.7.7,0,0,0,.995-.994l-.582-.582a2.118,2.118,0,0,0,0-1.82l8.431-8.431a.7.7,0,0,1,.994,0l7.956,7.956a.7.7,0,0,1,0,.994l-8.431,8.431a2.12,2.12,0,0,0-1.82,0l-.582-.582a.7.7,0,0,0-.994.994l.582.582a2.119,2.119,0,0,0,0,1.82l-.582.582a.7.7,0,0,1-.995,0L1.611,14.435A.7.7,0,0,1,1.611,13.441Zm0,0"/>
      <path id="Path_2886" data-name="Path 2886" class="cls-2" d="M138.234,306.7a.7.7,0,0,0,.994-.994l-1.989-1.989a.7.7,0,0,0-.994.995Zm0,0" transform="translate(-129.661 -289.278)"/>
    </g>
  </g>
</svg>
