<svg xmlns="http://www.w3.org/2000/svg" width="39" height="39" viewBox="0 0 39 39">
  <defs>
    <style>
      .cls-1 {
        fill: #d9ddec;
      }

      .cls-2 {
        fill: #031d83;
      }
    </style>
  </defs>
  <g id="Group_4524" data-name="Group 4524" transform="translate(-894 -708)">
    <rect id="Rectangle_662" data-name="Rectangle 662" class="cls-1" width="39" height="39" rx="10" transform="translate(894 708)"/>
    <g id="guarantee_1_" data-name="guarantee (1)" transform="translate(902.001 716)">
      <path id="Path_2887" data-name="Path 2887" class="cls-2" d="M23.263,9.706l-1.34-1.385.27-1.908A2.667,2.667,0,0,0,20.03,3.436l-1.9-.333-.9-1.7A2.651,2.651,0,0,0,14.877,0,2.591,2.591,0,0,0,13.73.264L12,1.11,10.268.264A2.589,2.589,0,0,0,9.121,0,2.651,2.651,0,0,0,6.769,1.4l-.9,1.7-1.9.333A2.667,2.667,0,0,0,1.805,6.413l.27,1.908L.735,9.706a2.667,2.667,0,0,0,0,3.679l1.34,1.385-.27,1.908a2.667,2.667,0,0,0,2.163,2.977l1.9.333.9,1.7a2.651,2.651,0,0,0,2.352,1.4,2.589,2.589,0,0,0,1.147-.264L12,21.98l1.731.846a2.591,2.591,0,0,0,1.147.264h0a2.651,2.651,0,0,0,2.352-1.4l.9-1.7,1.9-.333a2.667,2.667,0,0,0,2.163-2.977l-.27-1.908,1.34-1.385A2.667,2.667,0,0,0,23.263,9.706Zm-1.011,2.7-1.579,1.632a.7.7,0,0,0-.191.587l.318,2.248a1.265,1.265,0,0,1-1.013,1.394l-2.236.392a.7.7,0,0,0-.5.363l-1.064,2.006a1.264,1.264,0,0,1-1.11.654,1.2,1.2,0,0,1-.53-.121l-2.04-1a.7.7,0,0,0-.618,0l-2.04,1a1.2,1.2,0,0,1-.529.121,1.264,1.264,0,0,1-1.11-.654L6.947,19.025a.7.7,0,0,0-.5-.363l-2.236-.392A1.265,1.265,0,0,1,3.2,16.875l.318-2.248a.7.7,0,0,0-.191-.587L1.746,12.407a1.265,1.265,0,0,1,0-1.724L3.325,9.052a.7.7,0,0,0,.191-.587L3.2,6.216A1.265,1.265,0,0,1,4.211,4.822l2.236-.392a.7.7,0,0,0,.5-.363L8.011,2.06a1.264,1.264,0,0,1,1.11-.654,1.194,1.194,0,0,1,.529.121l2.04,1a.7.7,0,0,0,.618,0l2.04-1a1.194,1.194,0,0,1,.529-.121,1.264,1.264,0,0,1,1.11.654l1.064,2.006a.7.7,0,0,0,.5.363l2.236.392A1.265,1.265,0,0,1,20.8,6.216l-.318,2.248a.7.7,0,0,0,.191.587l1.579,1.632A1.265,1.265,0,0,1,22.252,12.407Zm0,0"/>
      <path id="Path_2888" data-name="Path 2888" class="cls-2" d="M106.694,89.656A7.343,7.343,0,1,0,114.037,97,7.351,7.351,0,0,0,106.694,89.656Zm0,13.279A5.936,5.936,0,1,1,112.631,97,5.943,5.943,0,0,1,106.694,102.935Zm0,0" transform="translate(-94.695 -85.454)"/>
      <path id="Path_2889" data-name="Path 2889" class="cls-2" d="M180.2,176.445a2.195,2.195,0,0,0-1.562.647l-.648.648a2.21,2.21,0,0,0-2.547,3.541l1.065,1.065a2.21,2.21,0,0,0,3.125,0l2.13-2.13a2.21,2.21,0,0,0-1.562-3.772Zm.568,2.777-2.13,2.13a.8.8,0,0,1-1.136,0l-1.065-1.065a.8.8,0,0,1,1.136-1.136l.031.029a.7.7,0,0,0,.975-.04l1.054-1.054a.8.8,0,1,1,1.136,1.136Zm0,0" transform="translate(-166.605 -168.174)"/>
    </g>
  </g>
</svg>
