<svg xmlns="http://www.w3.org/2000/svg" xmlns:xlink="http://www.w3.org/1999/xlink" width="111" height="104" viewBox="0 0 111 104">
  <defs>
    <filter id="Rectangle_1951" x="0" y="0" width="111" height="104" filterUnits="userSpaceOnUse">
      <feOffset dy="3" input="SourceAlpha"/>
      <feGaussianBlur stdDeviation="8" result="blur"/>
      <feFlood flood-opacity="0.051"/>
      <feComposite operator="in" in2="blur"/>
      <feComposite in="SourceGraphic"/>
    </filter>
  </defs>
  <g id="Group_4637" data-name="Group 4637" transform="translate(23.532 21)">
    <g transform="matrix(1, 0, 0, 1, -23.53, -21)" filter="url(#Rectangle_1951)">
      <rect id="Rectangle_1951-2" data-name="Rectangle 1951" width="63" height="56" rx="10" transform="translate(24 21)" fill="#031d83" opacity="0.1"/>
    </g>
    <g id="oil" transform="translate(20.995 11.652)">
      <g id="Group_4577" data-name="Group 4577" transform="translate(7.482 15.023)">
        <g id="Group_4576" data-name="Group 4576">
          <path id="Path_2842" data-name="Path 2842" d="M205.953,229.3l-2.746-4.394L200.46,229.3a3.026,3.026,0,0,0,2.566,4.63h.361a3.026,3.026,0,0,0,2.566-4.63Zm-2.566,3.561h-.361a1.957,1.957,0,0,1-1.659-2.995l1.84-2.944,1.84,2.945a1.957,1.957,0,0,1-1.66,2.994Z" transform="translate(-200 -224.904)" fill="#031d83"/>
        </g>
      </g>
      <g id="Group_4579" data-name="Group 4579" transform="translate(3.741 12.825)">
        <g id="Group_4578" data-name="Group 4578" transform="translate(0)">
          <path id="Path_2843" data-name="Path 2843" d="M156.291,192H145.6a1.605,1.605,0,0,0-1.6,1.6V207.5a1.605,1.605,0,0,0,1.6,1.6h10.688a1.605,1.605,0,0,0,1.6-1.6V193.6A1.605,1.605,0,0,0,156.291,192Zm.534,15.5a.535.535,0,0,1-.534.534H145.6a.535.535,0,0,1-.534-.534V193.6a.535.535,0,0,1,.534-.534h10.688a.535.535,0,0,1,.534.534Z" transform="translate(-144 -192)" fill="#031d83"/>
        </g>
      </g>
      <g id="Group_4581" data-name="Group 4581" transform="translate(0)">
        <g id="Group_4580" data-name="Group 4580">
          <path id="Path_2844" data-name="Path 2844" d="M107.291,11.111l-6.466-4.445V4.275H99.757V1.6a1.605,1.605,0,0,0-1.6-1.6H90.672a1.605,1.605,0,0,0-1.6,1.6V4.275H88v26.72a2.14,2.14,0,0,0,2.138,2.138h17.1a2.14,2.14,0,0,0,2.138-2.138V15.074A4.808,4.808,0,0,0,107.291,11.111ZM90.138,1.6a.535.535,0,0,1,.534-.534h1.069V3.206H92.81V1.069h1.069V3.206h1.069V1.069h1.069V3.206h1.069V1.069h1.069a.535.535,0,0,1,.534.534V4.275h-8.55Zm18.169,29.392a1.07,1.07,0,0,1-1.069,1.069h-17.1a1.07,1.07,0,0,1-1.069-1.069V7.482h8.55V6.413h-8.55V5.344H99.757V6.413H98.688V7.482h1.437l6.561,4.51a3.74,3.74,0,0,1,1.621,3.083Z" transform="translate(-88)" fill="#031d83"/>
        </g>
      </g>
      <g id="Group_4583" data-name="Group 4583" transform="translate(8.003 26.349)">
        <g id="Group_4582" data-name="Group 4582" transform="translate(0 0)">
          <rect id="Rectangle_1960" data-name="Rectangle 1960" width="1" height="1" transform="translate(0.468 0)" fill="#031d83"/>
        </g>
      </g>
      <g id="Group_4585" data-name="Group 4585" transform="translate(10.004 26.349)">
        <g id="Group_4584" data-name="Group 4584" transform="translate(0 0)">
          <rect id="Rectangle_1961" data-name="Rectangle 1961" width="1" height="1" transform="translate(0.469 0)" fill="#031d83"/>
        </g>
      </g>
      <g id="Group_4587" data-name="Group 4587" transform="translate(12.005 26.349)">
        <g id="Group_4586" data-name="Group 4586" transform="translate(0 0)">
          <rect id="Rectangle_1962" data-name="Rectangle 1962" width="2" height="1" transform="translate(0.468 0)" fill="#031d83"/>
        </g>
      </g>
    </g>
  </g>
</svg>
