<svg xmlns="http://www.w3.org/2000/svg" width="39" height="39" viewBox="0 0 39 39">
  <defs>
    <style>
      .cls-1 {
        fill: #d9ddec;
      }

      .cls-2 {
        fill: #031d83;
      }
    </style>
  </defs>
  <g id="Group_209" data-name="Group 209" transform="translate(-597 -708)">
    <rect id="Rectangle_661" data-name="Rectangle 661" class="cls-1" width="39" height="39" rx="10" transform="translate(597 708)"/>
    <g id="cubes" transform="translate(603 714.999)">
      <path id="Path_2881" data-name="Path 2881" class="cls-2" d="M24.517,12.32,19.353,10.6V2.589a.706.706,0,0,0-.483-.67L13.223.037a.707.707,0,0,0-.446,0L7.13,1.92a.706.706,0,0,0-.483.67V10.6L1.483,12.32a.706.706,0,0,0-.483.67v8.518a.706.706,0,0,0,.483.67L7.13,24.059a.706.706,0,0,0,.446,0L13,22.251l5.424,1.808a.706.706,0,0,0,.446,0l5.647-1.882a.706.706,0,0,0,.483-.67V12.989a.706.706,0,0,0-.483-.67Zm-5.87,1.808-3.415-1.138,3.415-1.138,3.415,1.138ZM7.353,11.851l3.415,1.138L7.353,14.128,3.938,12.989Zm4.941-6.871v7.03L8.059,10.6V3.569ZM17.941,10.6,13.706,12.01V4.981l4.235-1.412ZM8.059,15.381l4.235-1.412V21L8.059,22.41ZM13,1.451l3.415,1.138L13,3.728,9.585,2.589ZM2.412,13.969l4.235,1.412v7.03L2.412,21Zm11.294,0,4.235,1.412v7.03L13.706,21Zm5.647,8.441v-7.03l4.235-1.412V21Z" transform="translate(0 0)"/>
    </g>
  </g>
</svg>
