<svg xmlns="http://www.w3.org/2000/svg" width="39" height="39" viewBox="0 0 39 39">
  <defs>
    <style>
      .cls-1, .cls-2 {
        fill: #031d83;
      }

      .cls-1 {
        opacity: 0.148;
      }
    </style>
  </defs>
  <g id="Group_208" data-name="Group 208" transform="translate(-298 -708)">
    <rect id="Rectangle_660" data-name="Rectangle 660" class="cls-1" width="39" height="39" rx="10" transform="translate(298 708)"/>
    <g id="support" transform="translate(305.895 715.87)">
      <g id="Group_4626" data-name="Group 4626" transform="translate(0 0.013)">
        <g id="Group_4625" data-name="Group 4625" transform="translate(0 0)">
          <path id="Path_2879" data-name="Path 2879" class="cls-2" d="M16.933,12.968,15.48,11.515l3.839-3.839.5.5a.7.7,0,0,0,1.1-.135L23.9,3.066a.7.7,0,0,0-.106-.859L21.805.219a.7.7,0,0,0-.859-.106L15.975,3.1a.7.7,0,0,0-.135,1.1l.5.5L12.5,8.532,11.044,7.08A5.608,5.608,0,0,0,2.953.691a.7.7,0,0,0-.164,1.116L5.428,4.446a.7.7,0,0,1-.994.994L1.795,2.8a.7.7,0,0,0-1.116.164,5.608,5.608,0,0,0,6.389,8.091l.458.458L1.031,18.009A3.516,3.516,0,0,0,6,22.981L12.5,16.487l.458.458a5.608,5.608,0,0,0,8.091,6.389.7.7,0,0,0,.164-1.116l-2.639-2.639a.7.7,0,0,1,.994-.994l2.639,2.639a.7.7,0,0,0,1.116-.164,5.608,5.608,0,0,0-6.389-8.091ZM21.2,1.6l1.212,1.212L20.174,6.542l-2.7-2.7ZM17.331,5.687l.994.994-3.839,3.839-.994-.994ZM5.009,21.987A2.109,2.109,0,1,1,2.025,19L8.52,12.509,11.5,15.492ZM22.45,19.479,20.561,17.59a2.109,2.109,0,0,0-2.983,2.983l1.889,1.889a4.165,4.165,0,0,1-4.06-1.077,4.241,4.241,0,0,1-.991-4.4.7.7,0,0,0-.165-.733L7.762,9.762A.7.7,0,0,0,7.029,9.6a4.241,4.241,0,0,1-4.4-.991,4.164,4.164,0,0,1-1.077-4.06L3.439,6.435A2.109,2.109,0,1,0,6.422,3.451L4.534,1.563A4.164,4.164,0,0,1,8.594,2.64a4.241,4.241,0,0,1,.991,4.4.7.7,0,0,0,.165.733l6.488,6.488a.7.7,0,0,0,.733.165,4.241,4.241,0,0,1,4.4.991A4.165,4.165,0,0,1,22.45,19.479Z" transform="translate(0 -0.013)"/>
        </g>
      </g>
      <g id="Group_4628" data-name="Group 4628" transform="translate(3.645 14.805)">
        <g id="Group_4627" data-name="Group 4627">
          <path id="Path_2880" data-name="Path 2880" class="cls-2" d="M83.264,315.8a.7.7,0,0,0-.994,0l-4.3,4.3a.7.7,0,0,0,.994.994l4.3-4.3A.7.7,0,0,0,83.264,315.8Z" transform="translate(-77.767 -315.591)"/>
        </g>
      </g>
    </g>
  </g>
</svg>
